#!OML:ASF I:\Actors\actors\Patient Classification 2\Patient 1\Session 1\actor1.ASF
:FULLY-SPECIFIED
:DEGREES
392
root -0.640319 18.7142 5.6877 0.431703 -3.68497 -0.899627
lowerback 8.70378 -1.7029 11.5812
upperback -2.35974 -0.536741 5.60866
thorax -7.53388 -0.643311 -0.41888
lowerneck -16.5258 -3.58383 -4.71414
upperneck 11.1073 -3.11868 -4.33425
head 6.08777 -2.08281 -0.940023
rclavicle -4.74754e-015 -4.13472e-014
rhumerus -35.5857 30.1353 -63.6646
rradius 116.449
rwrist -0.550175
rhand -9.65095 -34.1366
rfingers 7.12502
rthumb 16.3197 -63.4699
lclavicle -4.74754e-015 -4.13472e-014
lhumerus 29.5382 -20.2251 44.0511
lradius 99.6357
lwrist -12.8995
lhand -14.1023 -22.9914
lfingers 7.12502
lthumb 12.0305 6.6428
rfemur 0 0 0
rtibia 0
rfoot 0 0
rtoes 0
lfemur -2.99368 0.867071 -12.8738
ltibia 20.368
lfoot -19.5599 9.30079
ltoes -56.3482
393
root -0.643073 18.7136 5.68509 0.416917 -3.73517 -1.00479
lowerback 8.72225 -1.73179 11.6584
upperback -2.3461 -0.572209 5.50018
thorax -7.53557 -0.666462 -0.571408
lowerneck -16.339 -3.5692 -4.56854
upperneck 10.981 -3.18464 -4.09682
head 6.0161 -2.08339 -0.887869
rclavicle -2.70254e-014 7.31528e-014
rhumerus -35.4915 30.1829 -64.2913
rradius 116.316
rwrist -0.248376
rhand -9.55985 -34.4319
rfingers 7.12502
rthumb 16.4075 -63.7579
lclavicle -2.70254e-014 7.31528e-014
lhumerus 27.1201 -19.8953 46.6877
lradius 100.449
lwrist -11.2603
lhand -14.7203 -22.1359
lfingers 7.12502
lthumb 11.4345 7.53233
rfemur 0 0 0
rtibia 0
rfoot 0 0
rtoes 0
lfemur -2.97835 0.91259 -12.7315
ltibia 20.381
lfoot -19.5649 9.24181
ltoes -56.233
394
root -0.646042 18.7153 5.68339 0.464894 -3.83417 -1.00089
lowerback 8.74563 -1.70685 11.7877
upperback -2.32823 -0.537245 5.28457
thorax -7.53025 -0.660217 -0.878205
lowerneck -16.2788 -3.63704 -4.3805
upperneck 10.8175 -3.36438 -3.84815
head 5.95287 -2.13713 -0.85225
rclavicle -2.5345e-014 4.6118e-014
rhumerus -35.5189 30.0351 -65.0253
rradius 116.287
rwrist -0.0612481
rhand -9.34214 -34.1799
rfingers 7.12502
rthumb 16.6171 -63.4885
lclavicle -2.5345e-014 4.6118e-014
lhumerus 24.6746 -20.0814 48.6052
lradius 101.453
lwrist -9.10909
lhand -15.6705 -22.0213
lfingers 7.12502
lthumb 10.518 7.69552
rfemur 0 0 0
rtibia 0
rfoot 0 0
rtoes 0
lfemur -3.00586 0.920203 -12.7244
ltibia 20.3749
lfoot -19.6195 9.2817
ltoes -56.0879
395
root -0.664653 18.7143 5.69407 0.394584 -3.43465 -0.876094
lowerback 8.58388 -1.83162 11.6904
upperback -2.3096 -0.75761 5.06444
thorax -7.43871 -0.763879 -1.0317
lowerneck -15.9646 -3.6989 -4.13358
upperneck 10.4662 -3.55862 -3.68599
head 5.78582 -2.1971 -0.846585
rclavicle -2.1711e-015 -3.81667e-014
rhumerus -35.816 29.9596 -65.8784
rradius 116.431
rwrist -0.0474279
rhand -9.2061 -33.6971
rfingers 7.12502
rthumb 16.748 -62.9947
lclavicle -2.1711e-015 -3.81667e-014
lhumerus 21.946 -21.1364 49.5416
lradius 102.634
lwrist -6.4544
lhand -18.1921 -21.5763
lfingers 7.12502
lthumb 8.08491 8.24904
rfemur 0 0 0
rtibia 0
rfoot 0 0
rtoes 0
lfemur -2.94843 1.01482 -12.709
ltibia 20.3371
lfoot -19.4186 8.82812
ltoes -56.144
396
root -0.676604 18.7157 5.69964 0.464864 -3.45365 -0.805093
lowerback 8.48357 -1.80675 11.6758
upperback -2.35672 -0.750678 4.87604
thorax -7.43276 -0.766021 -1.22753
lowerneck -15.5886 -3.75176 -4.0043
upperneck 10.1261 -3.72206 -3.46898
head 5.61634 -2.24388 -0.800617
rclavicle -1.61171e-014 1.11319e-014
rhumerus -36.0622 29.9678 -66.6628
rradius 116.481
rwrist -0.0101318
rhand -9.44672 -33.3896
rfingers 7.12502
rthumb 16.5164 -62.7066
lclavicle -1.61171e-014 1.11319e-014
lhumerus 18.877 -23.1629 49.7441
lradius 103.962
lwrist -3.71973
lhand -19.8849 -22.253
lfingers 7.12502
lthumb 6.45092 7.6288
rfemur 0 0 0
rtibia 0
rfoot 0 0
rtoes 0
lfemur -2.96286 1.15624 -12.7193
ltibia 20.2657
lfoot -19.3097 8.7479
ltoes -56.2295
397
root -0.684523 18.718 5.70632 0.569387 -3.6362 -0.759384
lowerback 8.37962 -1.71479 11.7324
upperback -2.42498 -0.644117 4.70343
thorax -7.43811 -0.723891 -1.45983
lowerneck -15.1831 -3.80899 -3.96923
upperneck 9.84097 -3.86811 -3.25367
head 5.46237 -2.28834 -0.738794
rclavicle 2.23012e-015 1.27222e-014
rhumerus -36.3166 30.0107 -67.3498
rradius 116.517
rwrist 0.0578508
rhand -9.86802 -33.2203
rfingers 7.12502
rthumb 16.1107 -62.5706
lclavicle 2.23012e-015 1.27222e-014
lhumerus 15.4645 -26.0885 49.6134
lradius 105.365
lwrist -1.32277
lhand -20.1956 -23.8658
lfingers 7.12502
lthumb 6.15097 6.02486
rfemur 0 0 0
rtibia 0
rfoot 0 0
rtoes 0
lfemur -2.97193 1.20323 -12.7564
ltibia 20.1871
lfoot -19.3219 8.86996
ltoes -56.2314
